<svg width="238" height="274" viewBox="0 0 238 274" fill="none" xmlns="http://www.w3.org/2000/svg">
<path d="M13 185H13.01H13ZM9 188H17C17.5304 188 18.0391 187.789 18.4142 187.414C18.7893 187.039 19 186.53 19 186V172C19 171.47 18.7893 170.961 18.4142 170.586C18.0391 170.211 17.5304 170 17 170H9C8.46957 170 7.96086 170.211 7.58579 170.586C7.21071 170.961 7 171.47 7 172V186C7 186.53 7.21071 187.039 7.58579 187.414C7.96086 187.789 8.46957 188 9 188Z" stroke="black" stroke-opacity="0.1" stroke-width="2" stroke-linecap="round" stroke-linejoin="round"/>
<path d="M95 178C95 179.857 94.2625 181.637 92.9497 182.95C91.637 184.263 89.8565 185 88 185M88 185C86.1435 185 84.363 184.263 83.0503 182.95C81.7375 181.637 81 179.857 81 178M88 185V189M88 189H84M88 189H92M88 181C87.2044 181 86.4413 180.684 85.8787 180.121C85.3161 179.559 85 178.796 85 178V172C85 171.204 85.3161 170.441 85.8787 169.879C86.4413 169.316 87.2044 169 88 169C88.7956 169 89.5587 169.316 90.1213 169.879C90.6839 170.441 91 171.204 91 172V178C91 178.796 90.6839 179.559 90.1213 180.121C89.5587 180.684 88.7956 181 88 181Z" stroke="black" stroke-opacity="0.1" stroke-width="2" stroke-linecap="round" stroke-linejoin="round"/>
<path d="M157 171.125C157 170.827 157.119 170.54 157.33 170.33C157.54 170.119 157.827 170 158.125 170H173.875C174.173 170 174.46 170.119 174.67 170.33C174.881 170.54 175 170.827 175 171.125V173.375C175 173.673 174.881 173.96 174.67 174.17C174.46 174.381 174.173 174.5 173.875 174.5H158.125C157.827 174.5 157.54 174.381 157.33 174.17C157.119 173.96 157 173.673 157 173.375V171.125ZM157 180.125C157 179.827 157.119 179.54 157.33 179.33C157.54 179.119 157.827 179 158.125 179H164.875C165.173 179 165.46 179.119 165.67 179.33C165.881 179.54 166 179.827 166 180.125V186.875C166 187.173 165.881 187.46 165.67 187.67C165.46 187.881 165.173 188 164.875 188H158.125C157.827 188 157.54 187.881 157.33 187.67C157.119 187.46 157 187.173 157 186.875V180.125ZM170.5 180.125C170.5 179.827 170.619 179.54 170.83 179.33C171.04 179.119 171.327 179 171.625 179H173.875C174.173 179 174.46 179.119 174.67 179.33C174.881 179.54 175 179.827 175 180.125V186.875C175 187.173 174.881 187.46 174.67 187.67C174.46 187.881 174.173 188 173.875 188H171.625C171.327 188 171.04 187.881 170.83 187.67C170.619 187.46 170.5 187.173 170.5 186.875V180.125Z" stroke="black" stroke-opacity="0.1" stroke-width="2" stroke-linecap="round" stroke-linejoin="round"/>
<path d="M17.5 8.5V17.5V8.5ZM13 11.875V17.5V11.875ZM8.5 15.25V17.5V15.25ZM6.25 22H19.75C20.3467 22 20.919 21.7629 21.341 21.341C21.7629 20.919 22 20.3467 22 19.75V6.25C22 5.65326 21.7629 5.08097 21.341 4.65901C20.919 4.23705 20.3467 4 19.75 4H6.25C5.65326 4 5.08097 4.23705 4.65901 4.65901C4.23705 5.08097 4 5.65326 4 6.25V19.75C4 20.3467 4.23705 20.919 4.65901 21.341C5.08097 21.7629 5.65326 22 6.25 22Z" stroke="black" stroke-opacity="0.1" stroke-width="2" stroke-linecap="round" stroke-linejoin="round"/>
<path d="M94.2318 6.22783L97.7677 9.75671L94.2318 6.22783ZM95.7317 4.73085C96.2006 4.2629 96.8366 4 97.4997 4C98.1628 4 98.7988 4.2629 99.2677 4.73085C99.7366 5.19881 100 5.8335 100 6.49529C100 7.15709 99.7366 7.79177 99.2677 8.25973L85.4999 22H82V18.4352L95.7317 4.73085V4.73085Z" stroke="black" stroke-opacity="0.1" stroke-width="2" stroke-linecap="round" stroke-linejoin="round"/>
<path d="M171.146 11H175.973C176.319 11 176.659 11.0871 176.96 11.2531C177.262 11.4191 177.516 11.6584 177.697 11.9484C177.879 12.2383 177.982 12.5692 177.998 12.9098C178.014 13.2503 177.941 13.5891 177.786 13.894L174.24 20.894C174.071 21.2265 173.813 21.5061 173.492 21.7014C173.172 21.8968 172.803 22.0002 172.426 22H168.356C168.19 22 168.025 21.98 167.864 21.94L164.053 21M171.146 11V6C171.146 5.46957 170.933 4.96086 170.553 4.58579C170.173 4.21071 169.657 4 169.12 4H169.023C168.517 4 168.106 4.405 168.106 4.905C168.106 5.619 167.893 6.317 167.49 6.911L164.053 12V21M171.146 11H169.12M164.053 21H162.027C161.489 21 160.974 20.7893 160.594 20.4142C160.214 20.0391 160 19.5304 160 19V13C160 12.4696 160.214 11.9609 160.594 11.5858C160.974 11.2107 161.489 11 162.027 11H164.56" stroke="black" stroke-opacity="0.1" stroke-width="2" stroke-linecap="round" stroke-linejoin="round"/>
<path d="M4 231L11.89 236.26C12.2187 236.479 12.6049 236.596 13 236.596C13.3951 236.596 13.7813 236.479 14.11 236.26L22 231M6 242H20C20.5304 242 21.0391 241.789 21.4142 241.414C21.7893 241.039 22 240.53 22 240V230C22 229.47 21.7893 228.961 21.4142 228.586C21.0391 228.211 20.5304 228 20 228H6C5.46957 228 4.96086 228.211 4.58579 228.586C4.21071 228.961 4 229.47 4 230V240C4 240.53 4.21071 241.039 4.58579 241.414C4.96086 241.789 5.46957 242 6 242Z" stroke="black" stroke-opacity="0.1" stroke-width="2" stroke-linecap="round" stroke-linejoin="round"/>
<path d="M88 226V228V226ZM94 226V228V226ZM88 242V244V242ZM94 242V244V242ZM84 232H82H84ZM84 238H82H84ZM100 232H98H100ZM100 238H98H100ZM86 242H96C96.5304 242 97.0391 241.789 97.4142 241.414C97.7893 241.039 98 240.53 98 240V230C98 229.47 97.7893 228.961 97.4142 228.586C97.0391 228.211 96.5304 228 96 228H86C85.4696 228 84.9609 228.211 84.5858 228.586C84.2107 228.961 84 229.47 84 230V240C84 240.53 84.2107 241.039 84.5858 241.414C84.9609 241.789 85.4696 242 86 242ZM88 232H94V238H88V232Z" stroke="black" stroke-opacity="0.1" stroke-width="2" stroke-linecap="round" stroke-linejoin="round"/>
<path d="M166.75 240L166 243L165 244H173L172 243L171.25 240H166.75ZM160 236H178H160ZM162 240H176C176.53 240 177.039 239.789 177.414 239.414C177.789 239.039 178 238.53 178 238V228C178 227.47 177.789 226.961 177.414 226.586C177.039 226.211 176.53 226 176 226H162C161.47 226 160.961 226.211 160.586 226.586C160.211 226.961 160 227.47 160 228V238C160 238.53 160.211 239.039 160.586 239.414C160.961 239.789 161.47 240 162 240Z" stroke="black" stroke-opacity="0.1" stroke-width="2" stroke-linecap="round" stroke-linejoin="round"/>
<path d="M9.69962 71.3127C10.5748 70.4375 11.7619 69.9459 12.9996 69.9459C14.2373 69.9459 15.4243 70.4375 16.2995 71.3127M12.9996 74.3641H13.0081M7.00042 68.3641C10.3131 65.0505 15.686 65.0505 18.9996 68.3641M4 65.3636C8.96988 60.3938 17.0293 60.3938 22 65.3636" stroke="black" stroke-opacity="0.1" stroke-width="2" stroke-linecap="round" stroke-linejoin="round"/>
<path d="M88 75V62L100 59V72M88 75C88 76.105 86.657 77 85 77C83.343 77 82 76.105 82 75C82 73.895 83.343 73 85 73C86.657 73 88 73.895 88 75ZM100 72C100 73.105 98.657 74 97 74C95.343 74 94 73.105 94 72C94 70.895 95.343 70 97 70C98.657 70 100 70.895 100 72ZM88 66L100 63" stroke="black" stroke-opacity="0.1" stroke-width="2" stroke-linecap="round" stroke-linejoin="round"/>
<path d="M165 65L168 68L165 71M170 71H173M162 76H176C176.53 76 177.039 75.7893 177.414 75.4142C177.789 75.0391 178 74.5304 178 74V62C178 61.4696 177.789 60.9609 177.414 60.5858C177.039 60.2107 176.53 60 176 60H162C161.47 60 160.961 60.2107 160.586 60.5858C160.211 60.9609 160 61.4696 160 62V74C160 74.5304 160.211 75.0391 160.586 75.4142C160.961 75.7893 161.47 76 162 76Z" stroke="black" stroke-opacity="0.1" stroke-width="2" stroke-linecap="round" stroke-linejoin="round"/>
<path d="M9 123H9.01H9ZM13 123H13.01H13ZM17 123H17.01H17ZM22 123C22 127.418 17.97 131 13 131C11.5286 131.005 10.0748 130.681 8.745 130.051L4 131L5.395 127.28C4.512 126.042 4 124.574 4 123C4 118.582 8.03 115 13 115C17.97 115 22 118.582 22 123Z" stroke="black" stroke-opacity="0.1" stroke-width="2" stroke-linecap="round" stroke-linejoin="round"/>
<path d="M93.828 125.828C93.0779 126.578 92.0607 126.999 91 126.999C89.9393 126.999 88.9221 126.578 88.172 125.828H93.828ZM88 121H88.01H88ZM94 121H94.01H94ZM100 123C100 124.182 99.7672 125.352 99.3149 126.444C98.8626 127.536 98.1997 128.528 97.364 129.364C96.5282 130.2 95.5361 130.863 94.4442 131.315C93.3522 131.767 92.1819 132 91 132C89.8181 132 88.6478 131.767 87.5558 131.315C86.4639 130.863 85.4718 130.2 84.636 129.364C83.8003 128.528 83.1374 127.536 82.6851 126.444C82.2328 125.352 82 124.182 82 123C82 120.613 82.9482 118.324 84.636 116.636C86.3239 114.948 88.6131 114 91 114C93.3869 114 95.6761 114.948 97.364 116.636C99.0518 118.324 100 120.613 100 123Z" stroke="black" stroke-opacity="0.1" stroke-width="2" stroke-linecap="round" stroke-linejoin="round"/>
<path d="M169 122.071C169 125.618 167.991 128.929 166.247 131.725M162.807 129.667L162.861 129.576C164.264 127.329 165.005 124.726 165 122.071C165 121.001 165.421 119.975 166.172 119.218C166.922 118.461 167.939 118.036 169 118.036C170.061 118.036 171.078 118.461 171.828 119.218C172.579 119.975 173 121.001 173 122.071C173 123.097 172.93 124.107 172.797 125.097M176.01 129.265C176.655 126.979 177 124.565 177 122.071C177 120.654 176.631 119.263 175.929 118.036C175.227 116.809 174.217 115.79 173.001 115.082C171.785 114.373 170.405 114 169 114C167.596 114 166.216 114.373 165 115.081M160 126.473C160.64 125.142 161 123.648 161 122.071C161 120.601 161.39 119.224 162.07 118.036M170.679 132C171.296 130.758 171.796 129.46 172.171 128.123L170.679 132Z" stroke="black" stroke-opacity="0.1" stroke-width="2" stroke-linecap="round" stroke-linejoin="round"/>
</svg>
